<?xml version="1.0" encoding="UTF-8"?>
<svg viewBox="0 0 992.12596 496.06298" xmlns="http://www.w3.org/2000/svg">
 <path transform="translate(0 -1.5259e-5)" d="m0 4.3e-5h992.13v329.53h-992.13z" fill="#b20000" fill-rule="evenodd"/>
 <path transform="translate(0 -1.5259e-5)" d="m0 329.53h992.13v166.54h-992.13z" fill="#429f00" fill-rule="evenodd"/>
 <path transform="translate(0 -3.0518e-5)" d="m0-1.1e-4h109.84v496.06h-109.84z" fill="#fff" fill-rule="evenodd"/>
 <g transform="matrix(.29524 0 0 .23729 141.23 142.93)" fill="#b20000" fill-rule="evenodd">
  <path transform="matrix(5 0 0 5 549.21 -35.433)" d="m-201.97-106.3h3.5433v7.0866h-3.5433z"/>
  <path transform="matrix(5 0 0 5 549.21 -35.433)" d="m-191.34-106.3h10.63v7.0866h-10.63z"/>
  <path transform="matrix(5 0 0 5 549.21 -35.433)" d="m-187.8-113.39h3.5433v7.0866h-3.5433z"/>
  <path transform="matrix(5 0 0 5 549.21 -35.433)" d="m-170.08-113.39h3.5433v7.0866h-3.5433z"/>
  <path transform="matrix(5 0 0 5 549.21 -35.433)" d="m-155.91-106.3h10.63v7.0866h-10.63z"/>
  <path transform="matrix(5 0 0 5 549.21 -35.433)" d="m-152.36-113.39h3.5433v7.0866h-3.5433z"/>
  <path transform="matrix(5 0 0 5 549.21 -35.433)" d="m-194.88-99.213h7.0866v7.0866h-7.0866z"/>
  <path transform="matrix(5 0 0 5 549.21 -35.433)" d="m-184.25-99.213h7.0866v7.0866h-7.0866z"/>
  <path transform="matrix(5 0 0 5 549.21 -35.433)" d="m-159.45-99.213h7.0866v7.0866h-7.0866z"/>
  <path transform="matrix(5 0 0 5 549.21 -35.433)" d="m-148.82-99.213h7.0866v7.0866h-7.0866z"/>
  <path transform="matrix(5 0 0 5 549.21 -35.433)" d="m-198.43-92.126h7.0866v7.0866h-7.0866z"/>
  <path transform="matrix(5 0 0 5 549.21 -35.433)" d="m-180.71-92.126h7.0866v7.0866h-7.0866z"/>
  <path transform="matrix(5 0 0 5 549.21 -35.433)" d="m-162.99-92.126h7.0866v7.0866h-7.0866z"/>
  <path transform="matrix(5 0 0 5 549.21 -35.433)" d="m-145.28-92.126h7.0866v7.0866h-7.0866z"/>
  <path transform="matrix(5 0 0 5 549.21 -35.433)" d="m-138.19-106.3h3.5433v7.0866h-3.5433z"/>
  <path transform="matrix(5 0 0 5 549.21 -35.433)" d="m-201.97-85.039h7.0866v7.0866h-7.0866z"/>
  <path transform="matrix(5 0 0 5 549.21 -35.433)" d="m-177.17-85.039h7.0866v7.0866h-7.0866z"/>
  <path transform="matrix(5 0 0 5 549.21 -35.433)" d="m-141.73-85.039h7.0866v7.0866h-7.0866z"/>
  <path transform="matrix(5 0 0 5 549.21 -35.433)" d="m-198.43-63.78h7.0866v7.0866h-7.0866z"/>
  <path transform="matrix(5 0 0 5 549.21 -35.433)" d="m-194.88-56.693h7.0866v7.0866h-7.0866z"/>
  <path transform="matrix(5 0 0 5 549.21 -35.433)" d="m-180.71-63.78h7.0866v7.0866h-7.0866z"/>
  <path transform="matrix(5 0 0 5 549.21 -35.433)" d="m-184.25-56.693h7.0866v7.0866h-7.0866z"/>
  <path transform="matrix(5 0 0 5 549.21 -35.433)" d="m-191.34-49.606h10.63v7.0866h-10.63z"/>
  <path transform="matrix(5 0 0 5 549.21 -35.433)" d="m-187.8-42.52h3.5433v7.0866h-3.5433z"/>
  <path transform="matrix(5 0 0 5 549.21 -35.433)" d="m-162.99-63.779h7.0866v7.0866h-7.0866z"/>
  <path transform="matrix(5 0 0 5 549.21 -35.433)" d="m-159.45-56.693h7.0866v7.0866h-7.0866z"/>
  <path transform="matrix(5 0 0 5 549.21 -35.433)" d="m-145.28-63.78h7.0866v7.0866h-7.0866z"/>
  <path transform="matrix(5 0 0 5 549.21 -35.433)" d="m-148.82-56.693h7.0866v7.0866h-7.0866z"/>
  <path transform="matrix(5 0 0 5 549.21 -35.433)" d="m-155.91-49.606h10.63v7.0866h-10.63z"/>
  <path transform="matrix(5 0 0 5 549.21 -35.433)" d="m-152.36-42.52h3.5433v7.0866h-3.5433z"/>
  <path transform="matrix(5 0 0 5 549.21 -35.433)" d="m-170.08-49.606h3.5433v7.0866h-3.5433z"/>
  <path transform="matrix(5 0 0 5 549.21 -35.433)" d="m-205.51-49.606h3.5433v7.0866h-3.5433z"/>
  <path transform="matrix(5 0 0 5 549.21 -35.433)" d="m-134.65-49.606h3.5433v7.0866h-3.5433z"/>
  <path transform="matrix(5 0 0 5 549.21 -35.433)" d="m-187.8-14.173h3.5433v7.0866h-3.5433z"/>
  <path transform="matrix(5 0 0 5 549.21 -35.433)" d="m-191.34-7.0866h10.63v7.0866h-10.63z"/>
  <path transform="matrix(5 0 0 5 549.21 -35.433)" d="m-194.88 6.8e-5h17.716v7.0866h-17.716z"/>
  <path transform="matrix(5 0 0 5 549.21 -35.433)" d="m-152.36-14.173h3.5433v7.0866h-3.5433z"/>
  <path transform="matrix(5 0 0 5 549.21 -35.433)" d="m-155.91-7.0866h10.63v7.0866h-10.63z"/>
  <path transform="matrix(5 0 0 5 549.21 -35.433)" d="m-159.45 6.8e-5h17.717v7.0866h-17.717z"/>
  <path transform="matrix(5 0 0 5 549.21 -35.433)" d="m-155.91 35.433h17.717v7.0866h-17.717z"/>
  <path transform="matrix(5 0 0 5 549.21 -35.433)" d="m-162.99 7.0866h24.803v7.0866h-24.803z"/>
  <path transform="matrix(5 0 0 5 549.21 -35.433)" d="m-198.43 7.0866h24.803v7.0866h-24.803z"/>
  <path transform="matrix(5 0 0 5 549.21 -35.433)" d="m-194.88 42.52h10.63v7.0866h-10.63z"/>
  <path transform="matrix(5 0 0 5 549.21 -35.433)" d="m-198.43 35.433h17.717v7.0866h-17.717z"/>
  <path transform="matrix(5 0 0 5 549.21 -35.433)" d="m-148.82 21.26h17.716v7.0866h-17.716z"/>
  <path transform="matrix(5 0 0 5 549.21 -35.433)" d="m-152.36 42.52h10.63v7.0866h-10.63z"/>
  <path transform="matrix(5 0 0 5 549.21 -35.433)" d="m-191.34 49.606h3.5433v7.0866h-3.5433z"/>
  <path transform="matrix(5 0 0 5 549.21 -35.433)" d="m-148.82 49.606h3.5433v7.0866h-3.5433z"/>
  <path transform="matrix(5 0 0 5 549.21 -35.433)" d="m-205.51 21.26h17.717v7.0866h-17.717z"/>
  <path transform="matrix(5 0 0 5 549.21 -35.433)" d="m-173.62 35.433h10.63v7.0866h-10.63z"/>
  <path transform="matrix(5 0 0 5 549.21 -35.433)" d="m-170.08 42.52h3.5433v7.0866h-3.5433z"/>
  <path transform="matrix(5 0 0 5 549.21 -35.433)" d="m-180.71 21.26h24.803v7.0866h-24.803z"/>
  <path transform="matrix(5 0 0 5 549.21 -35.433)" d="m-166.54-85.039h7.0866v7.0866h-7.0866z"/>
  <path transform="matrix(5 0 0 5 549.21 -35.433)" d="m-173.62-77.953h10.63v7.0866h-10.63z"/>
  <path transform="matrix(5 0 0 5 549.21 -35.433)" d="m-177.17-70.866h7.0866v7.0866h-7.0866z"/>
  <path transform="matrix(5 0 0 5 549.21 -35.433)" d="m-166.54-70.866h7.0866v7.0866h-7.0866z"/>
  <path transform="matrix(5 0 0 5 549.21 -35.433)" d="m-205.51-77.953h7.0866v7.0866h-7.0866z"/>
  <path transform="matrix(5 0 0 5 549.21 -35.433)" d="m-201.97-70.866h7.0866v7.0866h-7.0866z"/>
  <path transform="matrix(5 0 0 5 549.21 -35.433)" d="m-138.19-77.953h7.0866v7.0866h-7.0866z"/>
  <path transform="matrix(5 0 0 5 549.21 -35.433)" d="m-141.73-70.866h7.0866v7.0866h-7.0866z"/>
  <path transform="matrix(5 0 0 5 549.21 -35.433)" d="m-205.51-7.0866h3.5433v7.0866h-3.5433z"/>
  <path transform="matrix(5 0 0 5 549.21 -35.433)" d="m-134.65-7.0866h3.5433v7.0866h-3.5433z"/>
  <path transform="matrix(5 0 0 5 549.21 -35.433)" d="m-173.62 49.606h10.63v7.0866h-10.63z"/>
  <path transform="matrix(5 0 0 5 549.21 -35.433)" d="m-177.17 56.693h7.0866v7.0866h-7.0866z"/>
  <path transform="matrix(5 0 0 5 549.21 -35.433)" d="m-166.54 56.693h7.0866v7.0866h-7.0866z"/>
  <path transform="matrix(5 0 0 5 549.21 -35.433)" d="m-180.71 63.78h7.0866v7.0866h-7.0866z"/>
  <path transform="matrix(5 0 0 5 549.21 -35.433)" d="m-162.99 63.78h7.0866v7.0866h-7.0866z"/>
  <path transform="matrix(5 0 0 5 549.21 -35.433)" d="m-184.25 70.866h7.0866v7.0866h-7.0866z"/>
  <path transform="matrix(5 0 0 5 549.21 -35.433)" d="m-159.45 70.866h7.0866v7.0866h-7.0866z"/>
  <path transform="matrix(5 0 0 5 549.21 -35.433)" d="m-187.8 77.953h7.0866v7.0866h-7.0866z"/>
  <path transform="matrix(5 0 0 5 549.21 -35.433)" d="m-155.91 77.953h7.0866v7.0866h-7.0866z"/>
  <path transform="matrix(5 0 0 5 549.21 -35.433)" d="m-194.88 85.039h10.63v7.0866h-10.63z"/>
  <path transform="matrix(5 0 0 5 549.21 -35.433)" d="m-152.36 85.039h10.63v7.0866h-10.63z"/>
  <path transform="matrix(5 0 0 5 549.21 -35.433)" d="m-145.28 77.953h7.0866v7.0866h-7.0866z"/>
  <path transform="matrix(5 0 0 5 549.21 -35.433)" d="m-141.73 70.866h7.0866v7.0866h-7.0866z"/>
  <path transform="matrix(5 0 0 5 549.21 -35.433)" d="m-138.19 63.78h7.0866v7.0866h-7.0866z"/>
  <path transform="matrix(5 0 0 5 549.21 -35.433)" d="m-198.43 77.953h7.0866v7.0866h-7.0866z"/>
  <path transform="matrix(5 0 0 5 549.21 -35.433)" d="m-201.97 70.866h7.0866v7.0866h-7.0866z"/>
  <path transform="matrix(5 0 0 5 549.21 -35.433)" d="m-205.51 63.78h7.0866v7.0866h-7.0866z"/>
  <path transform="matrix(5 0 0 5 549.21 -35.433)" d="m-191.34 92.126h3.5433v7.0866h-3.5433z"/>
  <path transform="matrix(5 0 0 5 549.21 -35.433)" d="m-148.82 92.126h3.5433v7.0866h-3.5433z"/>
  <path transform="matrix(5 0 0 5 549.21 -35.433)" d="m-170.08 70.866h3.5433v7.0866h-3.5433z"/>
  <path transform="matrix(5 0 0 5 549.21 -35.433)" d="m-180.71 92.126h3.5433v7.0866h-3.5433z"/>
  <path transform="matrix(5 0 0 5 549.21 -35.433)" d="m-159.45 92.126h3.5433v7.0866h-3.5433z"/>
  <path transform="matrix(5 0 0 5 549.21 -35.433)" d="m-170.08 92.126h3.5433v7.0866h-3.5433z"/>
  <path transform="matrix(5 0 0 5 549.21 -35.433)" d="m-205.51 92.126h3.5433v7.0866h-3.5433z"/>
  <path transform="matrix(5 0 0 5 549.21 -35.433)" d="m-134.65 92.126h3.5433v7.0866h-3.5433z"/>
  <path transform="matrix(5 0 0 5 549.21 -35.433)" d="m-170.08-7.0866h3.5433v7.0866h-3.5433z"/>
  <path transform="matrix(5 0 0 5 549.21 -35.433)" d="m-187.8-77.953h3.5433v7.0866h-3.5433z"/>
  <path transform="matrix(5 0 0 5 549.21 -35.433)" d="m-152.36-77.953h3.5433v7.0866h-3.5433z"/>
  <path transform="matrix(5 0 0 5 549.21 -35.433)" d="m-173.62-28.346h10.63v7.0866h-10.63z"/>
  <path transform="matrix(5 0 0 5 549.21 -35.433)" d="m-180.71-21.26h10.63v7.0866h-10.63z"/>
  <path transform="matrix(5 0 0 5 549.21 -35.433)" d="m-177.17-14.173h3.5433v7.0866h-3.5433z"/>
  <path transform="matrix(5 0 0 5 549.21 -35.433)" d="m-184.25-28.346h7.0866v7.0866h-7.0866z"/>
  <path transform="matrix(5 0 0 5 549.21 -35.433)" d="m-180.71-35.433h10.63v7.0866h-10.63z"/>
  <path transform="matrix(5 0 0 5 549.21 -35.433)" d="m-177.17-42.52h3.5433v7.0866h-3.5433z"/>
  <path transform="matrix(5 0 0 5 549.21 -35.433)" d="m-166.54-35.433h10.63v7.0866h-10.63z"/>
  <path transform="matrix(5 0 0 5 549.21 -35.433)" d="m-162.99-42.52h3.5433v7.0866h-3.5433z"/>
  <path transform="matrix(5 0 0 5 549.21 -35.433)" d="m-159.45-28.346h7.0866v7.0866h-7.0866z"/>
  <path transform="matrix(5 0 0 5 549.21 -35.433)" d="m-166.54-21.26h10.63v7.0866h-10.63z"/>
  <path transform="matrix(5 0 0 5 549.21 -35.433)" d="m-162.99-14.173h3.5433v7.0866h-3.5433z"/>
  <path transform="matrix(5 0 0 5 549.21 -35.433)" d="m-148.82-28.346h7.0866v7.0866h-7.0866z"/>
  <path transform="matrix(5 0 0 5 549.21 -35.433)" d="m-145.28-35.433h10.63v7.0866h-10.63z"/>
  <path transform="matrix(5 0 0 5 549.21 -35.433)" d="m-138.19-28.346h7.0866v7.0866h-7.0866z"/>
  <path transform="matrix(5 0 0 5 549.21 -35.433)" d="m-145.28-21.26h10.63v7.0866h-10.63z"/>
  <path transform="matrix(5 0 0 5 549.21 -35.433)" d="m-141.73-14.173h3.5433v7.0866h-3.5433z"/>
  <path transform="matrix(5 0 0 5 549.21 -35.433)" d="m-141.73-42.52h3.5433v7.0866h-3.5433z"/>
  <path transform="matrix(5 0 0 5 549.21 -35.433)" d="m-205.51-28.346h7.0866v7.0866h-7.0866z"/>
  <path transform="matrix(5 0 0 5 549.21 -35.433)" d="m-201.97-35.433h10.63v7.0866h-10.63z"/>
  <path transform="matrix(5 0 0 5 549.21 -35.433)" d="m-194.88-28.346h7.0866v7.0866h-7.0866z"/>
  <path transform="matrix(5 0 0 5 549.21 -35.433)" d="m-201.97-21.26h10.63v7.0866h-10.63z"/>
  <path transform="matrix(5 0 0 5 549.21 -35.433)" d="m-198.43-14.173h3.5433v7.0866h-3.5433z"/>
  <path transform="matrix(5 0 0 5 549.21 -35.433)" d="m-198.43-42.52h3.5433v7.0866h-3.5433z"/>
  <path transform="matrix(5 0 0 5 549.21 -35.433)" d="m-201.97 14.173h14.173v7.0866h-14.173z"/>
  <path transform="matrix(5 0 0 5 549.21 -35.433)" d="m-184.25 14.173h14.173v7.0866h-14.173z"/>
  <path transform="matrix(5 0 0 5 549.21 -35.433)" d="m-166.54 14.173h14.173v7.0866h-14.173z"/>
  <path transform="matrix(5 0 0 5 549.21 -35.433)" d="m-148.82 14.173h14.173v7.0866h-14.173z"/>
  <path transform="matrix(5 0 0 5 549.21 -35.433)" d="m-177.17 28.346h17.717v7.0866h-17.717z"/>
  <path transform="matrix(5 0 0 5 549.21 -35.433)" d="m-201.97 28.346h17.716v7.0866h-17.716z"/>
  <path transform="matrix(5 0 0 5 549.21 -35.433)" d="m-152.36 28.346h17.716v7.0866h-17.716z"/>
  <path transform="matrix(5 0 0 5 549.21 -35.433)" d="m-134.65 56.693h3.5433v7.0866h-3.5433z"/>
  <path transform="matrix(5 0 0 5 549.21 -35.433)" d="m-205.51 56.693h3.5433v7.0866h-3.5433z"/>
  <path transform="matrix(5 0 0 -5 549.21 -35.433)" d="m-201.97-297.64h3.5433v7.0866h-3.5433z"/>
  <path transform="matrix(5 0 0 -5 549.21 -35.433)" d="m-191.34-297.64h10.63v7.0866h-10.63z"/>
  <path transform="matrix(5 0 0 -5 549.21 -35.433)" d="m-187.8-304.72h3.5433v7.0866h-3.5433z"/>
  <path transform="matrix(5 0 0 -5 549.21 -35.433)" d="m-170.08-304.72h3.5433v7.0866h-3.5433z"/>
  <path transform="matrix(5 0 0 -5 549.21 -35.433)" d="m-155.91-297.64h10.63v7.0866h-10.63z"/>
  <path transform="matrix(5 0 0 -5 549.21 -35.433)" d="m-152.36-304.72h3.5433v7.0866h-3.5433z"/>
  <path transform="matrix(5 0 0 -5 549.21 -35.433)" d="m-194.88-290.55h7.0866v7.0866h-7.0866z"/>
  <path transform="matrix(5 0 0 -5 549.21 -35.433)" d="m-184.25-290.55h7.0866v7.0866h-7.0866z"/>
  <path transform="matrix(5 0 0 -5 549.21 -35.433)" d="m-159.45-290.55h7.0866v7.0866h-7.0866z"/>
  <path transform="matrix(5 0 0 -5 549.21 -35.433)" d="m-148.82-290.55h7.0866v7.0866h-7.0866z"/>
  <path transform="matrix(5 0 0 -5 549.21 -35.433)" d="m-180.71-283.46h7.0866v7.0866h-7.0866z"/>
  <path transform="matrix(5 0 0 -5 549.21 -35.433)" d="m-162.99-283.46h7.0866v7.0866h-7.0866z"/>
  <path transform="matrix(5 0 0 -5 549.21 -35.433)" d="m-145.28-283.46h7.0866v7.0866h-7.0866z"/>
  <path transform="matrix(5 0 0 -5 549.21 -35.433)" d="m-138.19-297.64h3.5433v7.0866h-3.5433z"/>
  <path transform="matrix(5 0 0 -5 549.21 -35.433)" d="m-201.97-276.38h7.0866v7.0866h-7.0866z"/>
  <path transform="matrix(5 0 0 -5 549.21 -35.433)" d="m-177.17-276.38h7.0866v7.0866h-7.0866z"/>
  <path transform="matrix(5 0 0 -5 549.21 -35.433)" d="m-141.73-276.38h7.0866v7.0866h-7.0866z"/>
  <path transform="matrix(5 0 0 -5 549.21 -35.433)" d="m-198.43-255.12h7.0866v7.0866h-7.0866z"/>
  <path transform="matrix(5 0 0 -5 549.21 -35.433)" d="m-194.88-248.03h7.0866v7.0866h-7.0866z"/>
  <path transform="matrix(5 0 0 -5 549.21 -35.433)" d="m-180.71-255.12h7.0866v7.0866h-7.0866z"/>
  <path transform="matrix(5 0 0 -5 549.21 -35.433)" d="m-184.25-248.03h7.0866v7.0866h-7.0866z"/>
  <path transform="matrix(5 0 0 -5 549.21 -35.433)" d="m-191.34-240.94h10.63v7.0866h-10.63z"/>
  <path transform="matrix(5 0 0 -5 549.21 -35.433)" d="m-187.8-233.86h3.5433v7.0866h-3.5433z"/>
  <path transform="matrix(5 0 0 -5 549.21 -35.433)" d="m-162.99-255.12h7.0866v7.0866h-7.0866z"/>
  <path transform="matrix(5 0 0 -5 549.21 -35.433)" d="m-159.45-248.03h7.0866v7.0866h-7.0866z"/>
  <path transform="matrix(5 0 0 -5 549.21 -35.433)" d="m-145.28-255.12h7.0866v7.0866h-7.0866z"/>
  <path transform="matrix(5 0 0 -5 549.21 -35.433)" d="m-148.82-248.03h7.0866v7.0866h-7.0866z"/>
  <path transform="matrix(5 0 0 -5 549.21 -35.433)" d="m-155.91-240.94h10.63v7.0866h-10.63z"/>
  <path transform="matrix(5 0 0 -5 549.21 -35.433)" d="m-152.36-233.86h3.5433v7.0866h-3.5433z"/>
  <path transform="matrix(5 0 0 -5 549.21 -35.433)" d="m-170.08-240.94h3.5433v7.0866h-3.5433z"/>
  <path transform="matrix(5 0 0 -5 549.21 -35.433)" d="m-205.51-240.94h3.5433v7.0866h-3.5433z"/>
  <path transform="matrix(5 0 0 -5 549.21 -35.433)" d="m-134.65-240.94h3.5433v7.0866h-3.5433z"/>
  <path transform="matrix(5 0 0 -5 549.21 -35.433)" d="m-187.8-205.51h3.5433v7.0866h-3.5433z"/>
  <path transform="matrix(5 0 0 -5 549.21 -35.433)" d="m-191.34-198.43h10.63v7.0866h-10.63z"/>
  <path transform="matrix(5 0 0 -5 549.21 -35.433)" d="m-194.88-191.34h17.716v7.0866h-17.716z"/>
  <path transform="matrix(5 0 0 -5 549.21 -35.433)" d="m-152.36-205.51h3.5433v7.0866h-3.5433z"/>
  <path transform="matrix(5 0 0 -5 549.21 -35.433)" d="m-155.91-198.43h10.63v7.0866h-10.63z"/>
  <path transform="matrix(5 0 0 -5 549.21 -35.433)" d="m-159.45-191.34h17.717v7.0866h-17.717z"/>
  <path transform="matrix(5 0 0 -5 549.21 -35.433)" d="m-155.91-155.91h17.717v7.0866h-17.717z"/>
  <path transform="matrix(5 0 0 -5 549.21 -35.433)" d="m-162.99-184.25h24.803v7.0866h-24.803z"/>
  <path transform="matrix(5 0 0 -5 549.21 -35.433)" d="m-198.43-184.25h24.803v7.0866h-24.803z"/>
  <path transform="matrix(5 0 0 -5 549.21 -35.433)" d="m-194.88-148.82h10.63v7.0905h-10.63z"/>
  <path transform="matrix(5 0 0 -5 549.21 -35.433)" d="m-198.43-155.91h17.717v7.0866h-17.717z"/>
  <path transform="matrix(5 0 0 -5 549.21 -35.433)" d="m-148.82-170.08h17.717v7.0866h-17.717z"/>
  <path transform="matrix(5 0 0 -5 549.21 -35.433)" d="m-152.36-148.82h10.63v7.0866h-10.63z"/>
  <path transform="matrix(5 0 0 -5 549.21 -35.433)" d="m-205.51-170.08h17.717v7.0866h-17.717z"/>
  <path transform="matrix(5 0 0 -5 549.21 -35.433)" d="m-173.62-155.91h10.63v7.0866h-10.63z"/>
  <path transform="matrix(5 0 0 -5 549.21 -35.433)" d="m-170.08-148.82h3.5433v7.0866h-3.5433z"/>
  <path transform="matrix(5 0 0 -5 549.21 -35.433)" d="m-180.71-170.08h24.803v7.0866h-24.803z"/>
  <path transform="matrix(5 0 0 -5 549.21 -35.433)" d="m-166.54-276.38h7.0866v7.0866h-7.0866z"/>
  <path transform="matrix(5 0 0 -5 549.21 -35.433)" d="m-173.62-269.29h10.63v7.0866h-10.63z"/>
  <path transform="matrix(5 0 0 -5 549.21 -35.433)" d="m-177.17-262.2h7.0866v7.0866h-7.0866z"/>
  <path transform="matrix(5 0 0 -5 549.21 -35.433)" d="m-166.54-262.2h7.0866v7.0866h-7.0866z"/>
  <path transform="matrix(5 0 0 -5 549.21 -35.433)" d="m-205.51-269.29h7.0866v7.0866h-7.0866z"/>
  <path transform="matrix(5 0 0 -5 549.21 -35.433)" d="m-201.97-262.2h7.0866v7.0866h-7.0866z"/>
  <path transform="matrix(5 0 0 -5 549.21 -35.433)" d="m-138.19-269.29h7.0866v7.0866h-7.0866z"/>
  <path transform="matrix(5 0 0 -5 549.21 -35.433)" d="m-141.73-262.2h7.0866v7.0866h-7.0866z"/>
  <path transform="matrix(5 0 0 -5 549.21 -35.433)" d="m-205.51-198.43h3.5433v7.0866h-3.5433z"/>
  <path transform="matrix(5 0 0 -5 549.21 -35.433)" d="m-134.65-198.43h3.5433v7.0866h-3.5433z"/>
  <path transform="matrix(5 0 0 -5 549.21 -35.433)" d="m-177.17-134.65h7.0866v7.0866h-7.0866z"/>
  <path transform="matrix(5 0 0 -5 549.21 -35.433)" d="m-166.54-134.65h7.0866v7.0866h-7.0866z"/>
  <path transform="matrix(5 0 0 -5 549.21 -35.433)" d="m-180.71-127.56h7.0866v7.0866h-7.0866z"/>
  <path transform="matrix(5 0 0 -5 549.21 -35.433)" d="m-162.99-127.56h7.0866v7.0866h-7.0866z"/>
  <path transform="matrix(5 0 0 -5 549.21 -35.433)" d="m-184.25-120.47h7.0866v7.0866h-7.0866z"/>
  <path transform="matrix(5 0 0 -5 549.21 -35.433)" d="m-159.45-120.47h7.0866v7.0866h-7.0866z"/>
  <path transform="matrix(5 0 0 -5 549.21 -35.433)" d="m-187.8-113.39h7.0866v7.0866h-7.0866z"/>
  <path transform="matrix(5 0 0 -5 549.21 -35.433)" d="m-155.91-113.39h7.0866v7.0866h-7.0866z"/>
  <path transform="matrix(5 0 0 -5 549.21 -35.433)" d="m-194.88-106.3h10.63v7.0866h-10.63z"/>
  <path transform="matrix(5 0 0 -5 549.21 -35.433)" d="m-152.36-106.3h10.63v7.0866h-10.63z"/>
  <path transform="matrix(5 0 0 -5 549.21 -35.433)" d="m-145.28-113.39h7.0866v7.0866h-7.0866z"/>
  <path transform="matrix(5 0 0 -5 549.21 -35.433)" d="m-141.73-120.47h7.0866v7.0866h-7.0866z"/>
  <path transform="matrix(5 0 0 -5 549.21 -35.433)" d="m-138.19-127.56h7.0866v7.0866h-7.0866z"/>
  <path transform="matrix(5 0 0 -5 549.21 -35.433)" d="m-198.43-113.39h7.0866v7.0866h-7.0866z"/>
  <path transform="matrix(5 0 0 -5 549.21 -35.433)" d="m-201.97-120.47h7.0866v7.0866h-7.0866z"/>
  <path transform="matrix(5 0 0 -5 549.21 -35.433)" d="m-205.51-127.56h7.0866v7.0866h-7.0866z"/>
  <path transform="matrix(5 0 0 -5 549.21 -35.433)" d="m-191.34-99.213h3.5433v7.0866h-3.5433z"/>
  <path transform="matrix(5 0 0 -5 549.21 -35.433)" d="m-170.08-120.47h3.5433v7.0866h-3.5433z"/>
  <path transform="matrix(5 0 0 -5 549.21 -35.433)" d="m-170.08-198.43h3.5433v7.0866h-3.5433z"/>
  <path transform="matrix(5 0 0 -5 549.21 -35.433)" d="m-187.8-269.29h3.5433v7.0866h-3.5433z"/>
  <path transform="matrix(5 0 0 -5 549.21 -35.433)" d="m-152.36-269.29h3.5433v7.0866h-3.5433z"/>
  <path transform="matrix(5 0 0 -5 549.21 -35.433)" d="m-173.62-219.69h10.63v7.0866h-10.63z"/>
  <path transform="matrix(5 0 0 -5 549.21 -35.433)" d="m-180.71-212.6h10.63v7.0866h-10.63z"/>
  <path transform="matrix(5 0 0 -5 549.21 -35.433)" d="m-177.17-205.51h3.5433v7.0866h-3.5433z"/>
  <path transform="matrix(5 0 0 -5 549.21 -35.433)" d="m-184.25-219.69h7.0866v7.0866h-7.0866z"/>
  <path transform="matrix(5 0 0 -5 549.21 -35.433)" d="m-180.71-226.77h10.63v7.0866h-10.63z"/>
  <path transform="matrix(5 0 0 -5 549.21 -35.433)" d="m-177.17-233.86h3.5433v7.0866h-3.5433z"/>
  <path transform="matrix(5 0 0 -5 549.21 -35.433)" d="m-166.54-226.77h10.63v7.0866h-10.63z"/>
  <path transform="matrix(5 0 0 -5 549.21 -35.433)" d="m-162.99-233.86h3.5433v7.0866h-3.5433z"/>
  <path transform="matrix(5 0 0 -5 549.21 -35.433)" d="m-159.45-219.69h7.0866v7.0866h-7.0866z"/>
  <path transform="matrix(5 0 0 -5 549.21 -35.433)" d="m-166.54-212.6h10.63v7.0866h-10.63z"/>
  <path transform="matrix(5 0 0 -5 549.21 -35.433)" d="m-162.99-205.51h3.5433v7.0866h-3.5433z"/>
  <path transform="matrix(5 0 0 -5 549.21 -35.433)" d="m-148.82-219.69h7.0866v7.0866h-7.0866z"/>
  <path transform="matrix(5 0 0 -5 549.21 -35.433)" d="m-145.28-226.77h10.63v7.0866h-10.63z"/>
  <path transform="matrix(5 0 0 -5 549.21 -35.433)" d="m-138.19-219.69h7.0866v7.0866h-7.0866z"/>
  <path transform="matrix(5 0 0 -5 549.21 -35.433)" d="m-145.28-212.6h10.63v7.0866h-10.63z"/>
  <path transform="matrix(5 0 0 -5 549.21 -35.433)" d="m-141.73-205.51h3.5433v7.0866h-3.5433z"/>
  <path transform="matrix(5 0 0 -5 549.21 -35.433)" d="m-141.73-233.86h3.5433v7.0866h-3.5433z"/>
  <path transform="matrix(5 0 0 -5 549.21 -35.433)" d="m-205.51-219.69h7.0866v7.0866h-7.0866z"/>
  <path transform="matrix(5 0 0 -5 549.21 -35.433)" d="m-201.97-226.77h10.63v7.0866h-10.63z"/>
  <path transform="matrix(5 0 0 -5 549.21 -35.433)" d="m-194.88-219.69h7.0866v7.0866h-7.0866z"/>
  <path transform="matrix(5 0 0 -5 549.21 -35.433)" d="m-201.97-212.6h10.63v7.0866h-10.63z"/>
  <path transform="matrix(5 0 0 -5 549.21 -35.433)" d="m-198.43-205.51h3.5433v7.0866h-3.5433z"/>
  <path transform="matrix(5 0 0 -5 549.21 -35.433)" d="m-198.43-233.86h3.5433v7.0866h-3.5433z"/>
  <path transform="matrix(5 0 0 -5 549.21 -35.433)" d="m-201.97-177.17h14.173v7.0866h-14.173z"/>
  <path transform="matrix(5 0 0 -5 549.21 -35.433)" d="m-184.25-177.17h14.173v7.0866h-14.173z"/>
  <path transform="matrix(5 0 0 -5 549.21 -35.433)" d="m-166.54-177.17h14.173v7.0866h-14.173z"/>
  <path transform="matrix(5 0 0 -5 549.21 -35.433)" d="m-148.82-177.17h14.173v7.0866h-14.173z"/>
  <path transform="matrix(5 0 0 -5 549.21 -35.433)" d="m-177.17-162.99h17.717v7.0866h-17.717z"/>
  <path transform="matrix(5 0 0 -5 549.21 -35.433)" d="m-201.97-162.99h17.716v7.0866h-17.716z"/>
  <path transform="matrix(5 0 0 -5 549.21 -35.433)" d="m-152.36-162.99h17.716v7.0866h-17.716z"/>
  <path transform="matrix(5 0 0 -5 549.21 -35.433)" d="m-134.65-134.65h3.5433v7.0866h-3.5433z"/>
  <path transform="matrix(5 0 0 -5 549.21 -35.433)" d="m-205.51-134.65h3.5433v7.0866h-3.5433z"/>
  <path transform="matrix(5 0 0 5 549.21 -35.433)" d="m-173.62 99.213h3.5433v7.0866h-3.5433z"/>
  <path transform="matrix(5 0 0 5 549.21 -35.433)" d="m-166.54 99.213h3.5433v7.0866h-3.5433z"/>
  <path transform="matrix(5 0 0 5 549.21 -35.433)" d="m-166.54 85.039h3.5433v7.0866h-3.5433z"/>
  <path transform="matrix(5 0 0 5 549.21 -35.433)" d="m-173.62 85.039h3.5433v7.0866h-3.5433z"/>
  <path transform="matrix(5 0 0 5 549.21 -35.433)" d="m-198.43 276.38h7.0866v7.0866h-7.0866z"/>
  <path transform="matrix(5 0 0 -5 549.21 -35.433)" d="m-148.82-141.73h3.5433v7.0866h-3.5433z"/>
  <path transform="matrix(5 0 0 -5 549.21 -35.433)" d="m-191.34-141.73h3.5433v7.0866h-3.5433z"/>
  <path d="m-318.9 637.8h53.149v35.433h-53.149z"/>
 </g>
</svg>
