<svg xmlns="http://www.w3.org/2000/svg" viewBox="0 0 1000 1000" enable-background="new 0 0 1000 1000"><g fill="#890017"><path d="m338.6 989.5v-10.7-10.7-10.9-10.7-10.7-10.9-10.7h20.1 20.1 19.9 20.1 20.1 20.1 20 20.1 20.1 20.1 20.1 20.3 20.1 20.1 20.1 20.1v10.7 10.7 10.7 10.7 10.7 10.9 10.7 10.7h-20.1-20.1-19.9-20.1-20.1-20.1-20.1-20.1-20.1-20.1-20.1-20.2-20.1-20.1-20.1-20.1v-10.5"/><path d="m120.4 856.7v-14-13.7-13.8-13.8-13.8-13.8-13.8h4.7 4.7 4.7 4.7 4.7 4.8 4.7 4.7v6.1 6.3 6.3 6.3 6.3 6.3 6.3 6.6h3.1 3.1 3.1 3.1 3.1 3.1 3.1 3.1 3.1 3.1 3.1 3.1 3.1 3.1 3.1 3.1v-6.6-6.3-6.3-6.3-6.3-6.3-6.3-6.1h3.2 3.2 3.2 3.2 3.2 3.2 3.2 3.2 3.2 3.2 3.2 3.2 3.2 3.2 3.2 3.3v6.1 6.3 6.3 6.3 6.3 6.3 6.3 6.6h3.1 3.1 3.1 3.1 3.1 3.1 3.1 3.1 3.1 3.1 3.1 3.1 3.1 3.1 3.1 3.1v-6.6-6.3-6.3-6.3-6.3-6.3-6.3-6.1h3.2 3.2 3.2 3.2 3.2 3.2 3.2 3.2 3.2 3.2 3.2 3.2 3.2 3.2 3.2 3.3v6.1 6.3 6.3 6.3 6.3 6.3 6.3 6.6h3 3.1 3.1 3.1 3.1 3.1 3.1 3.1 3.1 3.1 3.1 3.1 3.1 3.1 3.1 3.1v-6.6-6.3-6.3-6.3-6.3-6.3-6.3-6.1h3.2 3.2 3.2 3.2 3.3 3.2 3.2 3.2 3.3 3.2 3.2 3.3 3.2 3.2 3.3 3.3v6.1 6.3 6.3 6.3 6.3 6.3 6.3 6.6h3.6 3.7 3.7 3.7 3.7 3.7 3.7 3.7 3.7 3.7 3.7 3.7 3.8 3.7 3.7 3.7v-6.6-6.3-6.3-6.3-6.3-6.3-6.3-6.1h3.2 3.2 3.2 3.2 3.2 3.2 3.2 3.2 3.2 3.2 3.2 3.2 3.2 3.2 3.2 3.2v6.1 6.3 6.3 6.3 6.3 6.3 6.3 6.6h3.1 3.1 3.1 3.1 3 3.1 3.1 3.1 3.1 3.1 3.1 3.1 3.1 3.1 3.1 3.1v-6.6-6.3-6.3-6.3-6.3-6.3-6.3-6.1h3.3 3.2 3.2 3.2 3.3 3.2 3.3 3.2 3.3 3.2 3.3 3.2 3.3 3.2 3.3 3.2v6.1 6.3 6.3 6.3 6.3 6.3 6.3 6.6h3.1 3.1 3.1 3.1 3 3.1 3.1 3.1 3.1 3.1 3.1 3.1 3.1 3.1 3.1 3.1v-6.6-6.3-6.3-6.3-6.3-6.3-6.3-6.1h3.2 3.2 3.2 3.2 3.2 3.2 3.2 3.2 3.2 3.2 3.2 3.2 3.2 3.2 3.2 3.2v6.1 6.3 6.3 6.3 6.3 6.3 6.3 6.6h3.1 3.1 3.1 3.1 3.1 3.1 3.1 3.1 3.1 3.1 3.1 3.1 3.1 3.1 3.1 3.1v-6.6-6.3-6.3-6.3-6.3-6.3-6.3-6.1h4.3 4.3 4.3 4.3 4.3 4.3 4.3 4.3v13.8 13.8 13.8 13.8 13.8 13.8 14 13.8h-46.1-46.1-46.1-46.1-46.1-46.1-46-46.1-46.1-46.1-46.1-46.1-46-46.1-46.1-46.1l.2-13.9"/><path d="m290.5 762.3v-6.6-6.6-6.6-6.6-6.6-6.3-6.6h-15.1-15.3-15.1-15-15.1-15.1-15.1-15.1v-10.7-10.5-10.7-10.5-10.7-10.5-10.5-10.5h19.9 20.1 19.9 20.1 19.9 20.1 20.1 19.9 20.1 20.1 19.9 20.1 20.1 20.1 19.9 20.1v10.5 10.5 10.5 10.7 10.5 10.7 10.5 10.7h-15.3-15.1-15.1-15.1-15.1-15.1-15.1-15.1v6.6 6.6 6.6 6.6 6.6 6.6 6.6 6.6h-9.8-9.8-9.8-9.8-9.8-9.8-9.8-9.8l-.1-6.9"/><path d="m630.8 762.3v-6.6-6.6-6.6-6.6-6.6-6.3-6.6h-12.2-12.2-12.2-12-12.2-12-12.2-12v-10.7-10.5-10.7-10.5-10.7-10.5-10.5-10.5h18.2 18.6 18.6 18.6 18.6 18.3 18.6 18.6 18.6 18.6 18.6 18.3 18.6 18.6 18.6 18.6v10.5 10.5 10.5 10.7 10.5 10.7 10.5 10.7h-15.4-15.3-15.3-15.3-15.3-15.3-15.3-15.1v6.6 6.6 6.6 6.6 6.6 6.6 6.6 6.6h-9.6-9.8-9.6-9.6-9.6-9.6-9.8-9.6l-.1-6.9"/><path d="m169.7 574.5v-13.8-13.7-13.8-13.8-14-13.8-14h15.7 15.7 15.7 15.9 15.7 15.9 15.9 15.7v13.8 13.8 13.8 13.8 14 13.8 13.8 14h-15.7-15.7-15.5-15.9-15.7-15.9-15.7-15.9v-13.9z"/><path d="m338.6 574.5v-13.8-13.7-13.8-13.8-14-13.8-14h20.1 20.1 19.9 20.1 20.1 20.1 20 20.1 20.1 20.1 20.1 20.3 20.1 20.1 20.1 20.1v13.8 13.8 13.8 13.8 14 13.8 13.8 14h-20.1-20.1-19.9-20.1-20.1-20.1-20.1-20.1-20.1-20.1-20.1-20.2-20.1-20.1-20.1-20.1v-13.9"/><path d="m703.8 574.5v-13.8-13.7-13.8-13.8-14-13.8-14h15.7 15.7 15.8 15.9 15.7 15.9 15.7 15.9v13.8 13.8 13.8 13.8 14 13.8 13.8 14h-15.7-15.7-15.7-15.9-15.7-15.9-15.9-15.7v-13.9z"/><path d="m120.4 420.3v-13.8-14-13.8-13.7-13.8-13.8-13.8h15.9 15.9 15.9 15.9 15.9 16.2 15.9 15.9v6.3 6.3 6.3 6.1 6.6 6.3 6.3 6.3h10.3 10.3 10.3 10.3 10.3 10.3 10.3 10.3 10.3 10.3 10.5 10.3 10.3 10.3 10.3 10.5v-6.3-6.3-6.3-6.6-6.1-6.3-6.3-6.3h10.7 10.9 10.9 10.9 10.9 10.7 10.9 10.9 10.9 10.9 10.9 10.9 10.9 10.9 10.9 11.1v6.3 6.3 6.3 6.1 6.6 6.3 6.3 6.3h10.3 10.3 10.3 10.5 10.3 10.3 10.5 10.3 10.5 10.3 10.5 10.3 10.5 10.3 10.5 10.5v-6.3-6.3-6.3-6.6-6.1-6.3-6.3-6.3h15.7 15.7 15.7 15.7 15.7 16 15.7 15.9v13.8 13.8 13.8 13.8 13.8 14 13.8 14h-47.4-47.6-47.4-47.4-47.4-47.6-47.4-47.4-47.4-47.4-47.6-47.4-47.4-47.4-47.6-47.4v-14.1"/><path d="m290.5 324.4v-6.4-6.3-6.3-6.4-6.3-6.3-6.1l-5.9-.2-5.7-.2-5.9-.2h-5.7l-5.9-.2-5.7-.2-5.7-.2h-5.7l15.7-17.5 15.7-17.5 15.9-17.5 15.7-17.3 15.7-17.5 15.9-17.5 15.7-17.5 15.9-17.5 15.9-17.3 15.7-17.5 15.9-17.5 15.7-17.5 15.9-17.3 15.9-17.5 15.7-17.5 16.6-17.2h1.3 1.3l15.7 17.3 15.9 17.3 15.7 17.3 15.9 17.1 15.7 17.3 15.9 17.3 15.7 17.3 15.9 17.3 15.7 17.3 15.7 17.3 15.9 17.5 15.7 17.3 15.9 17.3 15.7 17.3 15.9 17.3 15.9 17.3v1.3 1.3h-5.7l-5.5.2-5.5.2-5.5.2h-5.5l-5.5.2-5.2.2-5.5.2-.4 6.1-.2 6.3.3 6-.2 6.3-.2 6.3-.2 6.3v6.3l-.2 6.3h-9.6-9.8-9.6-9.6-9.6-9.6-9.8-9.6v-6.3l-.2-6.3v-6.3-6.3l-.2-6.3v-6.3-6.3-6.1h-16.6-16.2-16.4-16.4-16.4-16.2-16.4-16.4-16.2-16.4-16.4-16.2-16.4-16.2-16.4-16.2l-.2 6.1v6.3l-.2 6.3v6.3 6.3 6.3 6.3 6.3h-9.8-9.8-9.8-9.8-9.6-9.8-9.8-9.8l-.1-6.1"/></g></svg>