<svg id="Layer_1" data-name="Layer 1" xmlns="http://www.w3.org/2000/svg" viewBox="0 0 200 200"><defs><style>.cls-1{fill:none;stroke:#6b0a00;stroke-miterlimit:10;stroke-width:2.5px;}</style></defs><title>Tower_gardarike</title><rect class="cls-1" x="34.57" y="152.15" width="130.2" height="38.89"/><circle class="cls-1" cx="100.43" cy="121.85" r="3.28"/><polygon class="cls-1" points="81.07 135.81 93.43 132.75 92.84 191.05 81.07 191.05 81.07 135.81"/><polygon class="cls-1" points="119.81 136.23 107.45 132.71 108.02 190.96 119.81 191.05 119.81 136.23"/><polyline class="cls-1" points="93.43 132.5 93.44 130.51 93.57 111.47 82.98 113.66 82.98 132.96"/><polyline class="cls-1" points="107.47 132.96 107.47 132.5 107.47 130.5 107.47 111.58 117.92 113.68 118.05 133.53"/><circle class="cls-1" cx="100.43" cy="52.61" r="3.28"/><polygon class="cls-1" points="93.43 63.01 82.98 66.4 82.98 44.42 93.57 42.23 93.43 63.01"/><polygon class="cls-1" points="117.93 45.73 107.47 42.34 107.47 63.6 118.07 66.51 117.93 45.73"/><rect class="cls-1" x="93.57" y="104.86" width="13.91" height="6.61"/><polygon class="cls-1" points="93.48 104.89 79.64 107.57 79.64 114.28 93.54 111.38 93.48 104.89"/><polygon class="cls-1" points="121.35 114.37 107.47 111.59 107.47 104.89 121.35 107.29 121.35 114.37"/><line class="cls-1" x1="93.43" y1="132.75" x2="107.47" y2="132.84"/><polygon class="cls-1" points="81.07 66.97 93.43 62.96 93.03 104.86 81.07 107.29 81.07 66.97"/><polygon class="cls-1" points="119.81 67.19 107.45 63.21 107.85 104.86 119.81 107.03 119.81 67.19"/><line class="cls-1" x1="93.66" y1="63.01" x2="107.45" y2="63.21"/><polyline class="cls-1" points="81.07 136.25 81 133.43 93.46 130.5 107.67 130.5 119.81 134.05 119.81 136.48"/><line class="cls-1" x1="93.57" y1="42.23" x2="107.48" y2="42.23"/><path class="cls-1" d="M86.55,43.68V40.54a14,14,0,0,1,14-14h0"/><path class="cls-1" d="M114.32,44.56v-4a14,14,0,0,0-14-14h0"/><polyline class="cls-1" points="34.57 152.15 58.81 136.23 81.68 136.25"/><polyline class="cls-1" points="165.43 152.15 141.19 136.23 120.91 136.23"/><path class="cls-1" d="M97.16,26.53C96.94,26,100.31,9,100.31,9l3.4,17.58"/></svg>